<svg xmlns="http://www.w3.org/2000/svg" version="1.1" xmlns:xlink="http://www.w3.org/1999/xlink" xmlns:svgjs="http://svgjs.dev/svgjs" viewBox="0 0 2400 800" opacity="1"><defs><linearGradient x1="50%" y1="0%" x2="50%" y2="100%" id="sssurf-grad"><stop stop-color="hsl(208, 77%, 50%)" stop-opacity="1" offset="0%"></stop><stop stop-color="#165893" stop-opacity="1" offset="100%"></stop></linearGradient></defs><g fill="url(#sssurf-grad)" transform="matrix(1,0,0,1,8.247314453125,323.3389434814453)"><path d="M-10,10C47.63888888888889,12.083333333333334,153.47222222222223,23.75,266.6666666666667,20C379.86111111111114,16.25,422.2222222222223,-8.416666666666666,533.3333333333334,-8C644.4444444444445,-7.583333333333333,688.8888888888889,21.583333333333332,800,22C911.1111111111111,22.416666666666668,955.5555555555557,-8.5,1066.6666666666667,-6C1177.7777777777778,-3.5,1222.2222222222224,34.208333333333336,1333.3333333333335,34C1444.4444444444446,33.791666666666664,1488.888888888889,-8.25,1600,-7C1711.111111111111,-5.75,1755.5555555555557,37.916666666666664,1866.6666666666667,40C1977.7777777777778,42.083333333333336,2022.2222222222224,5.291666666666666,2133.3333333333335,3C2244.4444444444443,0.7083333333333335,2292.3611111111113,-53.70833333333334,2400,29C2507.6388888888887,111.70833333333334,3254.1666666666665,218.54166666666669,2650,400C2045.8333333333335,581.4583333333333,156.25,795.8333333333334,-500,900" transform="matrix(1,0,0,1,0,35)" opacity="NaN"></path></g></svg>